<svg width="665" height="270" viewBox="0 0 665 270" fill="none" xmlns="http://www.w3.org/2000/svg">
<path d="M70.1809 269.09C23.0609 269.09 0.260938 247.43 0.260938 201.45V67.6903C0.260938 21.7103 23.0609 0.0502913 70.1809 0.0502913H270.061C317.181 0.0502913 339.981 21.7103 339.981 67.6903V201.45C339.981 247.43 317.181 269.09 270.061 269.09H70.1809ZM71.7009 250.85H268.541C306.161 250.85 320.981 235.65 320.981 198.79V70.3503C320.981 33.4903 306.161 18.2903 268.541 18.2903H71.7009C34.4609 18.2903 19.6409 33.4903 19.6409 70.3503V198.79C19.6409 235.65 34.4609 250.85 71.7009 250.85ZM403.226 76.8103C382.706 76.8103 371.306 68.4503 371.306 44.8903V34.2503C371.306 11.0703 382.706 1.57029 403.226 1.57029H459.466C479.606 1.57029 491.386 11.0703 491.386 34.2503V44.8903C491.386 68.4503 479.606 76.8103 459.466 76.8103H403.226ZM385.366 267.57C382.326 267.57 380.046 264.53 383.466 260.73L629.706 6.5103C632.366 3.85031 634.646 1.57029 638.446 1.57029H650.226C653.266 1.57029 655.166 4.6103 651.746 8.4103L405.506 262.63C402.466 265.29 400.566 267.57 396.386 267.57H385.366ZM403.226 61.2303H459.466C470.486 61.2303 475.046 55.9103 475.046 45.6503V33.1103C475.046 22.4703 470.486 17.5303 459.466 17.5303H403.226C392.206 17.5303 387.266 22.4703 387.266 33.1103V45.6503C387.266 55.9103 392.206 61.2303 403.226 61.2303ZM576.126 267.57C555.986 267.57 544.206 258.07 544.206 234.89V224.25C544.206 200.69 555.986 192.33 576.126 192.33H632.366C652.886 192.33 664.286 200.69 664.286 224.25V234.89C664.286 258.07 652.886 267.57 632.366 267.57H576.126ZM576.126 251.61H632.366C643.386 251.61 648.326 246.67 648.326 236.03V223.49C648.326 213.23 643.386 207.91 632.366 207.91H576.126C565.106 207.91 560.546 213.23 560.546 223.49V236.03C560.546 246.67 565.106 251.61 576.126 251.61Z" fill="black"/>
</svg>
