<svg width="82" height="77" viewBox="0 0 82 77" fill="none" xmlns="http://www.w3.org/2000/svg">
<path d="M2.08983 66.311C-0.342069 68.4027 -0.616206 72.0684 1.47752 74.4985C3.57125 76.9286 7.24 77.203 9.67189 75.1113L2.08983 66.311ZM81.7899 10.8388C82.029 7.64136 79.6287 4.85535 76.4286 4.61603L24.2799 0.716065C21.0798 0.476744 18.2918 2.87474 18.0527 6.07213C17.8136 9.26953 20.2139 12.0555 23.414 12.2949L69.7684 15.7615L66.3047 62.0767C66.0655 65.2741 68.4659 68.0601 71.666 68.2994C74.8661 68.5387 77.6541 66.1407 77.8932 62.9433L81.7899 10.8388ZM9.67189 75.1113L79.7866 14.8056L72.2046 6.00529L2.08983 66.311L9.67189 75.1113Z" fill="black"/>
</svg>
